<svg xmlns="http://www.w3.org/2000/svg" width="125.951" height="20.098" viewBox="0 0 125.951 20.098">
  <path id="Caminho_3853" data-name="Caminho 3853" d="M12.411-2.2V-14.755H7.777V-2.173C7.777-.5,7.427.655,5.918.655a1.978,1.978,0,0,1-1.913-1.67L-.063.359a6.091,6.091,0,0,0,6.2,4.472C11.333,4.831,12.411.817,12.411-2.2Zm21.553,6.52L26.043-14.755H21.571l-8,19.075H18.58l1.4-3.745h7.382l1.482,3.745ZM26.1-3.116H21.3l2.425-6.547Zm25.756,4.8L48.647-1.338A4.868,4.868,0,0,1,44.606.6c-3.179,0-5.415-2.371-5.415-5.846,0-3.368,2.29-5.846,5.5-5.846A4.755,4.755,0,0,1,48.539-9.34l3.125-3.125a9.725,9.725,0,0,0-7.139-2.8c-5.819,0-10.345,3.907-10.345,10.022,0,5.981,4.391,10.076,10.265,10.076A9.473,9.473,0,0,0,51.853,1.679Zm19.64,2.64-8.7-10.292,8.217-8.783H65.243L58.427-7h-.081v-7.759H53.82V4.319h4.526V-4.464H58.4l7.086,8.783Zm15.949-13.2c0-4.365-3.287-5.873-7.463-5.873h-7V4.319h4.607V-2.874h2.29C83.859-2.874,87.443-4.464,87.443-8.882Zm-4.607.027c0,1.805-1.59,2.317-3.314,2.317h-1.94v-4.5H79.6C81.246-11.037,82.836-10.687,82.836-8.855ZM110.1-5.3c0-6.116-4.418-9.968-10.4-9.968-5.954,0-10.372,3.853-10.372,9.968,0,6.035,4.418,10.13,10.372,10.13C105.682,4.831,110.1.736,110.1-5.3Zm-4.93,0c0,3.448-2.263,5.927-5.469,5.927S94.259-1.85,94.259-5.3c0-3.341,2.209-5.819,5.442-5.819S105.17-8.639,105.17-5.3Zm20.718-5.523v-3.933H110.5v3.933h5.388V4.319H120.5V-10.822Z" transform="translate(0.063 15.267)"/>
</svg>
